<svg width="362" height="481" viewBox="0 0 362 481" fill="none" xmlns="http://www.w3.org/2000/svg">
<mask id="mask0_123_919" style="mask-type:alpha" maskUnits="userSpaceOnUse" x="0" y="0" width="362" height="481">
<rect width="362" height="481" fill="#D9D9D9"/>
</mask>
<g mask="url(#mask0_123_919)">
<path d="M-31.7221 100.951C-63.0711 109.311 -77.004 116.277 -111.488 141.705C-158.511 176.885 -181.849 207.886 -201.703 261.179C-214.591 295.663 -218.074 364.283 -208.67 405.385C-198.22 453.802 -162.691 510.927 -124.027 541.579C-104.87 556.905 -66.9026 578.501 -50.8798 583.378C-43.565 585.468 -43.2167 584.771 -43.2167 566.31C-43.2167 544.714 -42.1718 546.107 -78.0489 523.118C-123.331 493.859 -154.68 449.622 -168.613 394.935C-177.321 360.8 -177.321 328.754 -168.613 293.922C-157.466 250.73 -146.32 231.572 -113.229 198.133C-64.116 149.019 -16.3959 129.862 47.347 133.345C88.7974 135.783 120.495 145.536 148.709 164.346C214.542 207.538 249.374 270.236 249.374 344.777C249.374 403.643 228.823 452.757 187.024 494.556C147.315 533.916 100.989 554.467 45.2571 557.95L23.6611 559.344L21.5712 538.444C16.3463 490.376 -3.50801 445.79 -34.857 412.351C-45.3067 401.205 -53.6664 389.362 -53.6664 386.227C-53.6664 383.092 -50.5315 364.98 -46.6999 346.518C-42.8684 328.057 -39.7335 308.203 -39.7335 302.63C-39.7335 292.877 -40.0818 292.528 -58.8912 292.528C-69.3409 292.528 -78.0489 293.922 -78.0489 295.663C-78.0489 297.405 -82.9254 324.226 -88.8469 354.878L-99.6449 411.307L-89.5436 418.621C-68.9926 434.296 -46.7 460.072 -36.9469 479.578C-23.7107 505.354 -14.6543 547.152 -16.0476 573.277L-17.0926 593.828L28.1893 594.873C81.4826 595.918 111.09 590.693 146.967 573.277C212.452 541.579 257.385 488.982 280.723 416.183C290.824 385.182 291.869 317.608 282.813 282.079C260.52 193.256 188.069 122.199 94.3705 97.816C71.0329 91.5462 -3.15968 93.2878 -31.7221 100.951Z" fill="#D6141C"/>
<path d="M-67.5993 232.269C-67.5993 235.752 -68.6443 244.46 -69.6893 251.427L-72.1275 264.663H15.998V328.058C15.998 397.722 19.4812 429.42 28.5376 439.173C37.5939 449.274 43.5154 447.184 50.8302 430.813C56.7516 417.925 57.7966 407.824 57.7966 340.249V264.663H101.337C149.754 264.663 146.967 266.405 142.787 239.235L140.349 226.348H36.549C-60.2846 226.348 -67.5993 226.696 -67.5993 232.269Z" fill="#D6141C"/>
<path d="M113.528 294.967C113.528 296.709 116.663 319.001 120.843 344.777L128.506 391.801L113.876 407.475C84.6174 438.476 60.9315 482.713 55.7067 515.107L53.2684 529.388L66.853 529.04C88.7973 528.692 92.6288 525.557 102.73 499.433C117.011 463.207 143.136 429.071 167.518 415.487C173.44 412.004 173.44 409.914 166.473 370.553C162.293 347.564 157.417 320.743 155.327 310.642L151.147 292.529H132.338C121.888 292.529 113.528 293.574 113.528 294.967Z" fill="#D6141C"/>
</g>
</svg>
