<svg width="41" height="40" viewBox="0 0 41 40" fill="none" xmlns="http://www.w3.org/2000/svg">
<rect x="0.5" width="40" height="40" rx="20" fill="#111827"/>
<g clip-path="url(#clip0_337_294)">
<path d="M32.143 12.9368C31.308 13.3068 30.411 13.5568 29.468 13.6698C30.441 13.0876 31.169 12.1713 31.516 11.0918C30.6019 11.6348 29.6014 12.017 28.558 12.2218C27.8564 11.4727 26.9271 10.9762 25.9143 10.8093C24.9016 10.6425 23.8621 10.8146 22.9572 11.2991C22.0524 11.7835 21.3328 12.5532 20.9102 13.4885C20.4875 14.4239 20.3855 15.4726 20.62 16.4718C18.7677 16.3788 16.9556 15.8974 15.3014 15.0587C13.6472 14.2201 12.1879 13.043 11.018 11.6038C10.618 12.2938 10.388 13.0938 10.388 13.9458C10.3876 14.7128 10.5764 15.4681 10.9379 16.1446C11.2993 16.8211 11.8222 17.3979 12.46 17.8238C11.7203 17.8003 10.9969 17.6004 10.35 17.2408V17.3008C10.3499 18.3766 10.722 19.4192 11.4032 20.2518C12.0843 21.0844 13.0326 21.6558 14.087 21.8688C13.4008 22.0545 12.6813 22.0819 11.983 21.9488C12.2805 22.8744 12.86 23.6839 13.6404 24.2638C14.4208 24.8437 15.3629 25.165 16.335 25.1828C14.6848 26.4782 12.6469 27.1809 10.549 27.1778C10.1774 27.1779 9.80609 27.1562 9.43701 27.1128C11.5665 28.482 14.0454 29.2087 16.577 29.2058C25.147 29.2058 29.832 22.1078 29.832 15.9518C29.832 15.7518 29.827 15.5498 29.818 15.3498C30.7293 14.6908 31.5159 13.8747 32.141 12.9398L32.143 12.9368Z" fill="white"/>
</g>
<defs>
<clipPath id="clip0_337_294">
<rect width="24" height="24" fill="white" transform="translate(8.5 8)"/>
</clipPath>
</defs>
</svg>
