<svg width="41" height="40" viewBox="0 0 41 40" fill="none" xmlns="http://www.w3.org/2000/svg">
<rect x="0.5" width="40" height="40" rx="20" fill="#111827"/>
<path d="M10.504 30L11.856 25.032C10.9652 23.5049 10.4971 21.768 10.5 20C10.5 14.477 14.977 10 20.5 10C26.023 10 30.5 14.477 30.5 20C30.5 25.523 26.023 30 20.5 30C18.7328 30.0029 16.9967 29.5352 15.47 28.645L10.504 30ZM16.891 15.308C16.7619 15.316 16.6357 15.35 16.52 15.408C16.4115 15.4694 16.3125 15.5462 16.226 15.636C16.106 15.749 16.038 15.847 15.965 15.942C15.5954 16.423 15.3966 17.0134 15.4 17.62C15.402 18.11 15.53 18.587 15.73 19.033C16.139 19.935 16.812 20.89 17.701 21.775C17.915 21.988 18.124 22.202 18.349 22.401C19.4524 23.3725 20.7673 24.073 22.189 24.447L22.758 24.534C22.943 24.544 23.128 24.53 23.314 24.521C23.6053 24.506 23.8896 24.4271 24.147 24.29C24.278 24.2225 24.4058 24.1491 24.53 24.07C24.53 24.07 24.573 24.042 24.655 23.98C24.79 23.88 24.873 23.809 24.985 23.692C25.068 23.606 25.14 23.505 25.195 23.39C25.273 23.227 25.351 22.916 25.383 22.657C25.407 22.459 25.4 22.351 25.397 22.284C25.393 22.177 25.304 22.066 25.207 22.019L24.625 21.758C24.625 21.758 23.755 21.379 23.224 21.137C23.168 21.1126 23.108 21.0987 23.047 21.096C22.9786 21.089 22.9095 21.0967 22.8443 21.1186C22.7791 21.1405 22.7193 21.1761 22.669 21.223V21.221C22.664 21.221 22.597 21.278 21.874 22.154C21.8325 22.2098 21.7754 22.2519 21.7098 22.2751C21.6443 22.2982 21.5733 22.3013 21.506 22.284C21.4409 22.2666 21.377 22.2445 21.315 22.218C21.191 22.166 21.148 22.146 21.063 22.109L21.058 22.107C20.4859 21.8572 19.9562 21.5198 19.488 21.107C19.362 20.997 19.245 20.877 19.125 20.761C18.7316 20.3842 18.3887 19.958 18.105 19.493L18.046 19.398C18.0036 19.3342 17.9694 19.2653 17.944 19.193C17.906 19.046 18.005 18.928 18.005 18.928C18.005 18.928 18.248 18.662 18.361 18.518C18.4551 18.3983 18.5429 18.2738 18.624 18.145C18.742 17.955 18.779 17.76 18.717 17.609C18.437 16.925 18.147 16.244 17.849 15.568C17.79 15.434 17.615 15.338 17.456 15.319C17.402 15.313 17.348 15.307 17.294 15.303C17.1597 15.2963 17.0251 15.2987 16.891 15.308Z" fill="white"/>
</svg>
