<svg width="41" height="40" viewBox="0 0 41 40" fill="none" xmlns="http://www.w3.org/2000/svg">
<rect x="0.5" width="40" height="40" rx="20" fill="#111827"/>
<path d="M29.4471 16.305C29.437 15.5476 29.2952 14.7977 29.0281 14.089C28.7964 13.4911 28.4426 12.9482 27.9892 12.4948C27.5359 12.0414 26.9929 11.6876 26.3951 11.456C25.6954 11.1933 24.9563 11.0513 24.2091 11.036C23.2471 10.993 22.9421 10.981 20.5001 10.981C18.0581 10.981 17.7451 10.981 16.7901 11.036C16.0432 11.0514 15.3044 11.1934 14.6051 11.456C14.0071 11.6874 13.4641 12.0412 13.0107 12.4946C12.5573 12.948 12.2036 13.491 11.9721 14.089C11.7089 14.7881 11.5672 15.5271 11.5531 16.274C11.5101 17.237 11.4971 17.542 11.4971 19.984C11.4971 22.426 11.4971 22.738 11.5531 23.694C11.5681 24.442 11.7091 25.18 11.9721 25.881C12.2039 26.4787 12.558 27.0215 13.0115 27.4747C13.465 27.9279 14.0081 28.2815 14.6061 28.513C15.3035 28.7862 16.0424 28.9383 16.7911 28.963C17.7541 29.006 18.0591 29.019 20.5011 29.019C22.9431 29.019 23.2561 29.019 24.2111 28.963C24.9582 28.9482 25.6974 28.8066 26.3971 28.544C26.9948 28.312 27.5376 27.9581 27.9909 27.5048C28.4442 27.0515 28.7982 26.5087 29.0301 25.911C29.2931 25.211 29.4341 24.473 29.4491 23.724C29.4921 22.762 29.5051 22.457 29.5051 20.014C29.5031 17.572 29.5031 17.262 29.4471 16.305ZM20.4941 24.602C17.9401 24.602 15.8711 22.533 15.8711 19.979C15.8711 17.425 17.9401 15.356 20.4941 15.356C21.7202 15.356 22.896 15.843 23.763 16.71C24.63 17.577 25.1171 18.7529 25.1171 19.979C25.1171 21.2051 24.63 22.3809 23.763 23.2479C22.896 24.1149 21.7202 24.602 20.4941 24.602ZM25.3011 16.263C24.7041 16.263 24.2231 15.781 24.2231 15.185C24.2231 15.0435 24.2509 14.9033 24.3051 14.7726C24.3592 14.6419 24.4386 14.5231 24.5387 14.4231C24.6387 14.323 24.7575 14.2436 24.8882 14.1895C25.019 14.1353 25.1591 14.1075 25.3006 14.1075C25.4421 14.1075 25.5822 14.1353 25.7129 14.1895C25.8436 14.2436 25.9624 14.323 26.0625 14.4231C26.1625 14.5231 26.2419 14.6419 26.2961 14.7726C26.3502 14.9033 26.3781 15.0435 26.3781 15.185C26.3781 15.781 25.8961 16.263 25.3011 16.263Z" fill="white"/>
<path d="M20.4942 22.9818C22.1527 22.9818 23.4972 21.6373 23.4972 19.9788C23.4972 18.3203 22.1527 16.9758 20.4942 16.9758C18.8357 16.9758 17.4912 18.3203 17.4912 19.9788C17.4912 21.6373 18.8357 22.9818 20.4942 22.9818Z" fill="white"/>
</svg>
